<?xml version="1.0" standalone="no"?>
<!DOCTYPE svg PUBLIC "-//W3C//DTD SVG 20010904//EN"
 "http://www.w3.org/TR/2001/REC-SVG-20010904/DTD/svg10.dtd">
<svg version="1.0" xmlns="http://www.w3.org/2000/svg"
 width="565.000000pt" height="441.000000pt" viewBox="0 0 565.000000 441.000000"
 preserveAspectRatio="xMidYMid meet">

<g transform="translate(0.000000,441.000000) scale(0.100000,-0.100000)"
fill="#000000" stroke="none">
<path d="M3682 3824 c-61 -30 -77 -50 -162 -199 -73 -128 -107 -167 -170 -198
l-45 -22 -1360 -5 -1360 -5 -47 -28 c-95 -56 -141 -177 -104 -277 6 -19 107
-199 223 -400 116 -201 239 -417 275 -480 36 -63 74 -131 85 -150 11 -19 91
-159 178 -310 87 -151 217 -376 288 -500 71 -124 149 -259 172 -300 23 -41 51
-91 62 -110 11 -19 86 -150 167 -290 80 -140 158 -268 173 -284 63 -66 178
-87 263 -49 61 28 98 70 166 188 31 55 147 255 257 445 374 645 342 597 427
641 45 24 49 24 445 29 l400 5 42 28 c23 16 54 47 69 70 52 79 402 682 399
688 -2 3 -372 5 -823 4 -920 -2 -856 3 -929 -79 -21 -24 -68 -90 -104 -147
-36 -57 -95 -149 -130 -204 -36 -55 -112 -175 -169 -267 -59 -93 -111 -167
-118 -165 -7 1 -70 99 -139 217 -70 118 -147 251 -173 295 -26 44 -109 186
-185 315 -75 129 -141 239 -146 245 -33 34 -20 34 604 37 755 4 669 -22 822
243 99 172 108 183 173 216 l47 24 805 5 c800 5 805 5 845 27 71 38 54 11 341
534 68 125 124 230 124 233 0 3 -368 6 -818 6 l-818 0 -52 -26z"/>
</g>
</svg>
